<svg width="37" height="37" viewBox="0 0 37 37" fill="none" xmlns="http://www.w3.org/2000/svg">
<path d="M33.0931 6.65549C32.2895 5.84892 31.3353 5.20909 30.2851 4.77255C29.235 4.33601 28.1093 4.11133 26.9726 4.11133C25.8358 4.11133 24.7102 4.33601 23.66 4.77255C22.6098 5.20909 21.6557 5.84892 20.8521 6.65549L19.1843 8.32864L17.5165 6.65549C15.8932 5.02703 13.6916 4.11217 11.3959 4.11217C9.10031 4.11217 6.89869 5.02703 5.27543 6.65549C3.65217 8.28395 2.74023 10.4926 2.74023 12.7956C2.74023 15.0986 3.65217 17.3073 5.27543 18.9357L6.94323 20.6089L19.1843 32.8891L31.4253 20.6089L33.0931 18.9357C33.8971 18.1295 34.5349 17.1723 34.97 16.1188C35.4052 15.0652 35.6291 13.936 35.6291 12.7956C35.6291 11.6552 35.4052 10.526 34.97 9.47244C34.5349 8.4189 33.8971 7.46169 33.0931 6.65549V6.65549Z" stroke="#7A0000" stroke-width="2" stroke-linecap="round" stroke-linejoin="round"/>
</svg>
