<svg width="17" height="17" viewBox="0 0 17 17" fill="none" xmlns="http://www.w3.org/2000/svg">
<path d="M8.02224 0.547776C8.16733 0.0777375 8.83267 0.0777367 8.97776 0.547775L10.5241 5.5573C10.5888 5.76688 10.7825 5.90983 11.0018 5.90983H16.0582C16.5363 5.90983 16.7417 6.51654 16.3619 6.80699L12.2279 9.96866C12.0615 10.0959 11.9921 10.3132 12.0539 10.5133L13.6224 15.5949C13.766 16.0601 13.2276 16.4353 12.8409 16.1395L8.80374 13.052C8.62446 12.9148 8.37554 12.9148 8.19626 13.052L4.1591 16.1395C3.77237 16.4353 3.234 16.0601 3.3776 15.5949L4.94615 10.5133C5.00791 10.3132 4.93846 10.0959 4.77214 9.96866L0.638062 6.80699C0.258268 6.51654 0.463674 5.90983 0.941806 5.90983H5.99818C6.21751 5.90983 6.41124 5.76688 6.47593 5.5573L8.02224 0.547776Z" fill="#7A0000"/>
</svg>
