<svg width="16" height="16" viewBox="0 0 16 16" fill="none" xmlns="http://www.w3.org/2000/svg">
<path d="M5.22471 7.75133C5.87302 9.07675 6.94739 10.1462 8.27575 10.7885C8.37294 10.8346 8.48045 10.8545 8.58769 10.8464C8.69493 10.8383 8.79822 10.8024 8.88737 10.7422L10.8433 9.43799C10.9298 9.38031 11.0293 9.34512 11.1328 9.33561C11.2364 9.3261 11.3407 9.34256 11.4362 9.38352L15.0954 10.9517C15.2197 11.0045 15.3234 11.0963 15.3911 11.2132C15.4587 11.3301 15.4865 11.4658 15.4702 11.5999C15.3546 12.5049 14.913 13.3367 14.2282 13.9396C13.5434 14.5425 12.6624 14.8751 11.75 14.8751C8.93207 14.8751 6.22956 13.7557 4.23699 11.7631C2.24442 9.77057 1.125 7.06806 1.125 4.25014C1.12505 3.33777 1.45765 2.45671 2.06053 1.77192C2.66341 1.08712 3.49523 0.645559 4.40023 0.529903C4.53431 0.513678 4.67002 0.541465 4.78693 0.609077C4.90384 0.676689 4.99561 0.780463 5.04841 0.904765L6.61798 4.5671C6.65858 4.66183 6.67512 4.76513 6.66614 4.8678C6.65715 4.97047 6.62291 5.06932 6.56647 5.15556L5.26676 7.14147C5.2076 7.23081 5.17263 7.33396 5.16526 7.44085C5.15789 7.54775 5.17837 7.65472 5.22471 7.75133V7.75133Z" stroke="white" stroke-linecap="round" stroke-linejoin="round"/>
</svg>
